<?xml version="1.0" encoding="UTF-8"?>
<svg id="Layer_1" xmlns="http://www.w3.org/2000/svg" version="1.1" viewBox="0 0 646.2 111.8">
  <!-- Generator: Adobe Illustrator 30.1.0, SVG Export Plug-In . SVG Version: 2.1.1 Build 136)  -->
  <defs>
    <style>
      .st0 {
        fill: #05f;
      }
    </style>
  </defs>
  <g>
    <path class="st0" d="M6.9,111c-1,0-1.9-.1-2.7-.4s-1.6-.7-2.3-1.2C1.2,108.9.5,108.2,0,107.4l1.5-1.6c.9,1.2,1.7,2.1,2.6,2.6.9.5,1.9.7,3,.7s1.6-.1,2.2-.4c.7-.3,1.2-.7,1.6-1.1s.6-1.1.6-1.7,0-.8-.2-1.1-.3-.6-.6-.9c-.3-.3-.6-.5-1-.7-.4-.2-.9-.4-1.4-.5-.5-.2-1.1-.3-1.7-.5-.9-.2-1.7-.5-2.4-.8-.7-.3-1.3-.7-1.8-1.1s-.8-.9-1.1-1.5c-.2-.6-.4-1.2-.4-2s.2-1.4.5-2.1c.3-.6.8-1.2,1.3-1.6.6-.5,1.2-.8,2-1.1.8-.3,1.6-.4,2.4-.4s1.9.1,2.6.4c.8.3,1.5.6,2.1,1.2.6.5,1.1,1.1,1.6,1.8l-1.5,1.5c-.4-.6-.8-1.1-1.3-1.6-.5-.4-1-.8-1.6-1s-1.2-.3-1.9-.3-1.5.1-2.1.4c-.6.3-1.1.6-1.4,1.1-.3.5-.5,1-.5,1.6s0,.9.2,1.2c.2.4.4.7.8.9.4.3.8.5,1.4.7.6.2,1.3.4,2.1.6.9.2,1.8.5,2.5.8.8.3,1.4.7,1.9,1.1.5.4.9.9,1.2,1.5.3.6.4,1.2.4,1.9,0,1.1-.3,2.1-.8,3-.6.8-1.3,1.5-2.4,2s-2.2.7-3.5.7Z"/>
    <path class="st0" d="M26.9,110.8v-19h2.1l7.3,11.9h-1s7.4-11.9,7.4-11.9h1.9v19h-2.1v-8.7c0-1.6,0-3.1,0-4.4,0-1.3.2-2.6.3-3.9l.4.8-6.8,10.7h-1.5l-6.6-10.6.3-.9c.1,1.2.2,2.5.3,3.7,0,1.3,0,2.8,0,4.6v8.7h-2.1Z"/>
    <path class="st0" d="M57.1,110.8l7.3-19h2.4l7.2,19h-2.3l-4.7-12.3c-.1-.3-.3-.7-.4-1.2-.2-.5-.3-.9-.5-1.4-.2-.5-.3-1-.5-1.5-.2-.5-.3-.9-.4-1.3h.5c-.1.5-.3.9-.4,1.4-.2.5-.3.9-.5,1.4-.2.5-.3.9-.5,1.4s-.3.9-.5,1.4l-4.6,12.2h-2.2ZM60.2,105.5l.8-2.1h9l.9,2.1h-10.7Z"/>
    <path class="st0" d="M86.5,110.8v-19h7.5c1.1,0,2.1.3,3,.8.9.5,1.6,1.2,2.1,2.1.5.9.8,1.9.8,3s-.3,2-.8,2.9c-.5.9-1.2,1.5-2.1,2-.9.5-1.8.7-2.9.7h-5.5v7.5h-2.1ZM88.6,101.2h5.7c.7,0,1.3-.2,1.8-.5.5-.3.9-.7,1.2-1.3.3-.5.4-1.1.4-1.8s-.2-1.4-.5-2c-.3-.6-.8-1-1.4-1.4-.6-.3-1.3-.5-2.1-.5h-5.1v7.4ZM98.1,110.8l-4.8-8.4,2-.7,5.3,9.1h-2.5Z"/>
    <path class="st0" d="M116.3,110.8v-17h-5.4v-2.1h13.2v2.1h-5.7v17h-2.1Z"/>
    <path class="st0" d="M136.6,110.8v-19h11.5v2.1h-9.4v14.9h9.4v2.1h-11.5ZM137.6,102v-2.1h9v2.1h-9Z"/>
    <path class="st0" d="M161.9,110.8v-19h7.5c1.1,0,2.1.3,3,.8.9.5,1.6,1.2,2.1,2.1.5.9.8,1.9.8,3s-.3,2-.8,2.9c-.5.9-1.2,1.5-2.1,2-.9.5-1.8.7-2.9.7h-5.5v7.5h-2.1ZM164,101.2h5.7c.7,0,1.3-.2,1.8-.5.5-.3.9-.7,1.2-1.3.3-.5.4-1.1.4-1.8s-.2-1.4-.5-2c-.3-.6-.8-1-1.4-1.4-.6-.3-1.3-.5-2.1-.5h-5.1v7.4ZM173.5,110.8l-4.8-8.4,2-.7,5.3,9.1h-2.5Z"/>
    <path class="st0" d="M205.4,110.8v-19h2.1l7.3,11.9h-1s7.4-11.9,7.4-11.9h1.9v19h-2.1v-8.7c0-1.6,0-3.1,0-4.4,0-1.3.2-2.6.3-3.9l.4.8-6.8,10.7h-1.5l-6.6-10.6.3-.9c.1,1.2.2,2.5.3,3.7,0,1.3,0,2.8,0,4.6v8.7h-2.1Z"/>
    <path class="st0" d="M235.6,110.8l7.3-19h2.4l7.2,19h-2.3l-4.7-12.3c-.1-.3-.3-.7-.4-1.2-.2-.5-.3-.9-.5-1.4-.2-.5-.3-1-.5-1.5-.2-.5-.3-.9-.4-1.3h.5c-.1.5-.3.9-.4,1.4-.2.5-.3.9-.5,1.4-.2.5-.3.9-.5,1.4s-.3.9-.5,1.4l-4.6,12.2h-2.2ZM238.7,105.5l.8-2.1h9l.9,2.1h-10.7Z"/>
    <path class="st0" d="M265,110.8v-19h7.5c1.1,0,2.1.3,3,.8.9.5,1.6,1.2,2.1,2.1.5.9.8,1.9.8,3s-.3,2-.8,2.9c-.5.9-1.2,1.5-2.1,2-.9.5-1.8.7-2.9.7h-5.5v7.5h-2.1ZM267.1,101.2h5.7c.7,0,1.3-.2,1.8-.5.5-.3.9-.7,1.2-1.3.3-.5.4-1.1.4-1.8s-.2-1.4-.5-2c-.3-.6-.8-1-1.4-1.4-.6-.3-1.3-.5-2.1-.5h-5.1v7.4ZM276.6,110.8l-4.8-8.4,2-.7,5.3,9.1h-2.5Z"/>
    <path class="st0" d="M291.9,110.8v-19h2.1v19h-2.1ZM293.5,104.9v-2.5c0,0,10.7-10.7,10.7-10.7h2.9l-13.5,13.2ZM304.7,110.8l-7.6-10.2,1.6-1.4,8.8,11.5h-2.7Z"/>
    <path class="st0" d="M319.9,110.8v-19h11.5v2.1h-9.4v14.9h9.4v2.1h-11.5ZM320.9,102v-2.1h9v2.1h-9Z"/>
    <path class="st0" d="M348.6,110.8v-17h-5.4v-2.1h13.2v2.1h-5.7v17h-2.1Z"/>
    <path class="st0" d="M374.5,111c-1,0-1.9-.1-2.7-.4s-1.6-.7-2.3-1.2c-.7-.5-1.3-1.2-1.9-2l1.5-1.6c.9,1.2,1.7,2.1,2.6,2.6.9.5,1.9.7,3,.7s1.6-.1,2.2-.4c.7-.3,1.2-.7,1.6-1.1s.6-1.1.6-1.7,0-.8-.2-1.1-.3-.6-.6-.9c-.3-.3-.6-.5-1-.7-.4-.2-.9-.4-1.4-.5-.5-.2-1.1-.3-1.7-.5-.9-.2-1.7-.5-2.4-.8-.7-.3-1.3-.7-1.8-1.1s-.8-.9-1.1-1.5-.4-1.2-.4-2,.2-1.4.5-2.1c.3-.6.8-1.2,1.3-1.6.6-.5,1.2-.8,2-1.1.8-.3,1.6-.4,2.4-.4s1.9.1,2.6.4c.8.3,1.5.6,2.1,1.2.6.5,1.1,1.1,1.6,1.8l-1.5,1.5c-.4-.6-.8-1.1-1.3-1.6-.5-.4-1-.8-1.6-1s-1.2-.3-1.9-.3-1.5.1-2.1.4c-.6.3-1.1.6-1.4,1.1-.3.5-.5,1-.5,1.6s0,.9.2,1.2c.2.4.4.7.8.9.4.3.8.5,1.4.7.6.2,1.3.4,2.1.6.9.2,1.8.5,2.5.8.8.3,1.4.7,1.9,1.1.5.4.9.9,1.2,1.5.3.6.4,1.2.4,1.9,0,1.1-.3,2.1-.8,3-.6.8-1.3,1.5-2.4,2s-2.2.7-3.5.7Z"/>
    <path class="st0" d="M416.6,111c-1,0-1.9-.1-2.7-.4s-1.6-.7-2.3-1.2c-.7-.5-1.3-1.2-1.9-2l1.5-1.6c.9,1.2,1.7,2.1,2.6,2.6.9.5,1.9.7,3,.7s1.6-.1,2.2-.4c.7-.3,1.2-.7,1.6-1.1s.6-1.1.6-1.7,0-.8-.2-1.1-.3-.6-.6-.9c-.3-.3-.6-.5-1-.7-.4-.2-.9-.4-1.4-.5-.5-.2-1.1-.3-1.7-.5-.9-.2-1.7-.5-2.4-.8-.7-.3-1.3-.7-1.8-1.1s-.8-.9-1.1-1.5c-.2-.6-.4-1.2-.4-2s.2-1.4.5-2.1c.3-.6.8-1.2,1.3-1.6.6-.5,1.2-.8,2-1.1.8-.3,1.6-.4,2.4-.4s1.9.1,2.6.4c.8.3,1.5.6,2.1,1.2.6.5,1.1,1.1,1.6,1.8l-1.5,1.5c-.4-.6-.8-1.1-1.3-1.6-.5-.4-1-.8-1.6-1s-1.2-.3-1.9-.3-1.5.1-2.1.4c-.6.3-1.1.6-1.4,1.1-.3.5-.5,1-.5,1.6s0,.9.2,1.2c.2.4.4.7.8.9.4.3.8.5,1.4.7.6.2,1.3.4,2.1.6.9.2,1.8.5,2.5.8.8.3,1.4.7,1.9,1.1.5.4.9.9,1.2,1.5.3.6.4,1.2.4,1.9,0,1.1-.3,2.1-.8,3-.6.8-1.3,1.5-2.4,2-1,.5-2.2.7-3.5.7Z"/>
    <path class="st0" d="M440,110.8v-17h-5.4v-2.1h13.2v2.1h-5.7v17h-2.1Z"/>
    <path class="st0" d="M456.9,110.8l7.3-19h2.4l7.2,19h-2.3l-4.7-12.3c-.1-.3-.3-.7-.4-1.2-.2-.5-.3-.9-.5-1.4-.2-.5-.3-1-.5-1.5-.2-.5-.3-.9-.4-1.3h.5c-.1.5-.3.9-.4,1.4-.2.5-.3.9-.5,1.4-.2.5-.3.9-.5,1.4s-.3.9-.5,1.4l-4.6,12.2h-2.2ZM460,105.5l.8-2.1h9l.9,2.1h-10.7Z"/>
    <path class="st0" d="M486.3,110.8v-19h7.5c1.1,0,2.1.3,3,.8.9.5,1.6,1.2,2.1,2.1.5.9.8,1.9.8,3s-.3,2-.8,2.9c-.5.9-1.2,1.5-2.1,2-.9.5-1.8.7-2.9.7h-5.5v7.5h-2.1ZM488.4,101.2h5.7c.7,0,1.3-.2,1.8-.5.5-.3.9-.7,1.2-1.3.3-.5.4-1.1.4-1.8s-.2-1.4-.5-2c-.3-.6-.8-1-1.4-1.4-.6-.3-1.3-.5-2.1-.5h-5.1v7.4ZM497.9,110.8l-4.8-8.4,2-.7,5.3,9.1h-2.5Z"/>
    <path class="st0" d="M516.1,110.8v-17h-5.4v-2.1h13.2v2.1h-5.7v17h-2.1Z"/>
    <path class="st0" d="M553,110.8v-19h2.1v19h-2.1ZM554.1,102.3v-2.1h12.6v2.1h-12.6ZM565.8,110.8v-19h2.1v19h-2.1Z"/>
    <path class="st0" d="M582.5,110.8v-19h11.5v2.1h-9.4v14.9h9.4v2.1h-11.5ZM583.4,102v-2.1h9v2.1h-9Z"/>
    <path class="st0" d="M607.7,110.8v-19h7.5c1.1,0,2.1.3,3,.8.9.5,1.6,1.2,2.1,2.1.5.9.8,1.9.8,3s-.3,2-.8,2.9c-.5.9-1.2,1.5-2.1,2-.9.5-1.8.7-2.9.7h-5.5v7.5h-2.1ZM609.8,101.2h5.7c.7,0,1.3-.2,1.8-.5.5-.3.9-.7,1.2-1.3.3-.5.4-1.1.4-1.8s-.2-1.4-.5-2c-.3-.6-.8-1-1.4-1.4-.6-.3-1.3-.5-2.1-.5h-5.1v7.4ZM619.3,110.8l-4.8-8.4,2-.7,5.3,9.1h-2.5Z"/>
    <path class="st0" d="M634.6,110.8v-19h11.5v2.1h-9.4v14.9h9.4v2.1h-11.5ZM635.6,102v-2.1h9v2.1h-9Z"/>
  </g>
  <g>
    <g>
      <polygon class="st0" points="270.8 40 256.1 .5 244.3 .5 265.8 54.1 275.5 54.1 297.1 .5 285.5 .5 270.8 40"/>
      <polygon class="st0" points="209.5 35.2 183 .5 172.9 .5 172.9 53.7 183.5 53.7 183.5 17.8 210.8 53.7 220.1 53.7 220.1 .5 209.5 .5 209.5 35.2"/>
      <rect class="st0" x="132.2" y=".5" width="10.7" height="53.2"/>
      <polygon class="st0" points="433.8 35.2 407.3 .5 397.2 .5 397.2 53.7 407.8 53.7 407.8 17.8 435.1 53.7 444.4 53.7 444.4 .5 433.8 .5 433.8 35.2"/>
      <polygon class="st0" points="634.2 .5 619.6 24.1 604.9 .5 593 .5 593 53.7 603.5 53.7 603.5 16.9 619.4 41.1 635.5 16.7 635.5 53.7 646.2 53.7 646.2 .5 634.2 .5"/>
      <path class="st0" d="M534.7,0l-22.8,53.6h10.9c1-2.4,1.9-4.7,2.9-7.1h28.1l2.9,7.1h11.2L544.9,0h-10.2ZM529.3,37.6c3.4-8.5,6.9-16.9,10.4-25.4l10.4,25.4h-20.7Z"/>
      <rect class="st0" x="474.5" y=".5" width="10.7" height="53.2"/>
      <polygon class="st0" points="366.4 10.8 366.4 0 323.1 0 323.1 .5 323.1 10.8 323.1 21.9 323.1 32.6 323.1 43.4 323.1 53.7 323.1 54.1 366.4 54.1 366.4 43.4 333.9 43.4 333.9 32.6 364.4 32.6 364.4 21.9 333.9 21.9 333.9 10.8 366.4 10.8"/>
    </g>
    <g>
      <path class="st0" d="M95.7,33.1h0v-11.1h0c-22,0-41,13-49.9,31.6h12.7c7.8-12.3,21.6-20.5,37.2-20.5Z"/>
      <path class="st0" d="M75.9,3.7c-12.9,3.8-20.2,9-26,14h0c-2.6,2.1-4.7,4.1-6.9,6.2-6.3,6-12.2,11.7-26.4,15.9C10,41.8,4.6,42.5,0,42.5v11.1c5.5,0,12-.9,19.8-3.2,12.9-3.8,20.2-9,26-14h0c2.6-2.1,4.7-4.1,6.9-6.2,6.3-6,12.2-11.7,26.4-15.9,6.7-2,12-2.7,16.7-2.8V.5c-5.5,0-12,.9-19.8,3.2Z"/>
      <path class="st0" d="M0,21h0v11.1h0c22,0,41-13,49.9-31.6h-12.7C29.4,12.8,15.7,21,0,21Z"/>
    </g>
  </g>
</svg>