<?xml version="1.0" encoding="UTF-8"?>
<svg id="Layer_1" xmlns="http://www.w3.org/2000/svg" version="1.1" viewBox="0 0 840.6 288.6">
  <!-- Generator: Adobe Illustrator 30.1.0, SVG Export Plug-In . SVG Version: 2.1.1 Build 136)  -->
  <defs>
    <style>
      .st0 {
        fill: #002b82;
      }

      .st1 {
        fill: #fff;
      }
    </style>
  </defs>
  <g>
    <path class="st0" d="M724.3,259h-12.7v-99.3h12.7v99.3Z"/>
    <path class="st0" d="M662.6,260.7c-7,0-12.5-1.8-16.6-5.5-4-3.7-5.9-8.5-5.9-14.4s2.2-10.8,6.5-14.4c4.3-3.7,10.3-5.8,18.1-6.5l20.8-1.6v-1.9c0-3.7-.7-6.6-2-8.8-1.3-2.2-3.2-3.8-5.5-4.7-2.3-1-5-1.5-8-1.5-5.3,0-9.4,1.1-12.4,3.4-2.9,2.2-4.3,5.3-4.3,9.3h-11.1c0-4.6,1.2-8.6,3.5-12,2.3-3.4,5.6-6.1,9.8-8,4.3-1.9,9.3-2.8,15-2.8s10.3,1,14.3,3c4.1,1.9,7.3,4.8,9.6,8.8,2.3,3.9,3.5,8.8,3.5,14.7v41.4h-10.8l-1.3-10.7c-1.7,3.8-4.7,6.8-8.9,9-4.1,2.2-8.9,3.2-14.2,3.2ZM666.2,250.8c6,0,10.8-1.8,14.2-5.4,3.4-3.7,5.1-8.6,5.1-14.8v-3.5l-16.9,1.3c-5.6.5-9.6,1.8-12.1,3.9-2.4,2.1-3.6,4.7-3.6,8s1.2,6.2,3.5,8c2.4,1.7,5.7,2.6,9.8,2.6Z"/>
    <path class="st0" d="M598.2,193.1h38.6v10.7h-38.6v-10.7ZM623.8,259h-12.7v-86.6h12.7v86.6Z"/>
    <path class="st0" d="M578.2,259v-66h12.7v66h-12.7ZM584.4,177.4c-2.3,0-4.2-.8-5.9-2.4-1.6-1.7-2.4-3.7-2.4-5.9s.8-4.3,2.4-5.9c1.7-1.6,3.7-2.4,5.9-2.4s4.3.8,5.9,2.4c1.6,1.6,2.4,3.6,2.4,5.9s-.8,4.2-2.4,5.9c-1.6,1.6-3.6,2.4-5.9,2.4Z"/>
    <path class="st0" d="M501.3,288.6v-95.5h11.5l.9,11.9c2.2-4.6,5.4-8,9.6-10.3,4.3-2.3,9.1-3.5,14.3-3.5s11.7,1.5,16.3,4.5c4.6,2.9,8.1,6.9,10.5,12.1,2.5,5.1,3.8,11.1,3.8,17.8s-1.2,12.8-3.6,18.1c-2.3,5.3-5.8,9.5-10.4,12.5-4.5,3.1-10,4.6-16.6,4.6s-10-1.1-14.2-3.2c-4.1-2.2-7.3-5.3-9.4-9.3v40.3h-12.7ZM514.1,226.1c0,4.4.8,8.4,2.4,12,1.7,3.5,4.1,6.3,7.2,8.2,3.1,2,6.9,3,11.2,3s8-1,11.1-3c3.1-2.1,5.4-4.9,7-8.4,1.7-3.5,2.6-7.5,2.6-11.9s-.9-8.6-2.6-12.1c-1.6-3.5-4-6.3-7-8.2-3.1-2-6.7-3-11.1-3s-8.1,1-11.2,3c-3.1,2-5.4,4.7-7.2,8.2-1.6,3.5-2.4,7.6-2.4,12.1Z"/>
    <path class="st0" d="M452.6,260.7c-7,0-12.5-1.8-16.6-5.5-4-3.7-5.9-8.5-5.9-14.4s2.2-10.8,6.5-14.4c4.3-3.7,10.3-5.8,18.1-6.5l20.8-1.6v-1.9c0-3.7-.7-6.6-2-8.8-1.3-2.2-3.2-3.8-5.5-4.7-2.3-1-5-1.5-8-1.5-5.3,0-9.4,1.1-12.4,3.4-2.9,2.2-4.3,5.3-4.3,9.3h-11.1c0-4.6,1.2-8.6,3.5-12,2.3-3.4,5.6-6.1,9.8-8,4.3-1.9,9.3-2.8,15-2.8s10.3,1,14.3,3c4.1,1.9,7.3,4.8,9.6,8.8,2.3,3.9,3.5,8.8,3.5,14.7v41.4h-10.8l-1.3-10.7c-1.7,3.8-4.7,6.8-8.9,9-4.1,2.2-8.9,3.2-14.2,3.2ZM456.2,250.8c6,0,10.7-1.8,14.2-5.4,3.4-3.7,5.1-8.6,5.1-14.8v-3.5l-16.9,1.3c-5.6.5-9.6,1.8-12.1,3.9-2.4,2.1-3.6,4.7-3.6,8s1.2,6.2,3.5,8c2.4,1.7,5.7,2.6,9.8,2.6Z"/>
    <path class="st0" d="M381,260.5c-9.3,0-17.4-2.1-24.3-6.2-6.9-4.2-12.3-10.1-16.2-17.5-3.9-7.6-5.8-16.4-5.8-26.4s2-18.9,5.9-26.4c4-7.6,9.4-13.4,16.5-17.7,7.1-4.2,15.3-6.3,24.6-6.3s14,1.4,20,4.2c5.9,2.7,10.9,6.5,14.8,11.5,4,4.9,6.5,10.7,7.7,17.4h-14.2c-1.8-6.4-5.3-11.4-10.4-15-5.1-3.6-11.2-5.4-18.3-5.4s-12.3,1.6-17.3,4.7c-4.9,3.1-8.6,7.4-11.3,13.1-2.7,5.6-4,12.2-4,19.8s1.3,14.2,4,19.8,6.5,10.1,11.5,13.2c4.9,3.1,10.7,4.6,17.1,4.6s13.4-1.8,18.6-5.3c5.3-3.6,8.9-8.4,10.7-14.4h14c-1.3,6.5-4.1,12.1-8.2,17-4,4.9-9.1,8.6-15.2,11.3-6,2.7-12.7,4-20.1,4Z"/>
  </g>
  <g>
    <path class="st0" d="M754.5,102.5h-12.7V36.6h11.3l1.8,12.1-1.6-1.1c1.3-3.7,3.8-6.7,7.4-9.2,3.7-2.5,8.1-3.8,13.4-3.8s10.7,1.6,14.6,4.7c3.9,3.1,6.4,7.3,7.6,12.5h-2.3c.9-5.2,3.4-9.4,7.4-12.5,4-3.1,9-4.7,15-4.7s13.5,2.2,17.8,6.6c4.3,4.4,6.5,10.4,6.5,18.1v43.2h-12.4v-40.1c0-5.2-1.3-9.2-4-12-2.6-2.9-6.2-4.3-10.7-4.3s-5.9.7-8.4,2.2c-2.3,1.3-4.2,3.3-5.5,5.9-1.3,2.6-2,5.7-2,9.2v39.1h-12.5v-40.2c0-5.2-1.3-9.2-3.9-11.9-2.6-2.8-6.2-4.2-10.7-4.2s-5.9.7-8.4,2.2c-2.3,1.3-4.2,3.3-5.5,5.9-1.3,2.5-2,5.5-2,9v39.1Z"/>
    <path class="st0" d="M693.1,104.2c-7,0-12.5-1.8-16.6-5.5-4-3.7-5.9-8.5-5.9-14.4s2.2-10.8,6.5-14.4c4.3-3.7,10.3-5.8,18.1-6.5l20.8-1.6v-1.9c0-3.7-.7-6.6-2-8.8-1.3-2.2-3.2-3.8-5.5-4.7-2.3-1-5-1.5-8-1.5-5.3,0-9.4,1.1-12.4,3.4-2.9,2.2-4.3,5.3-4.3,9.3h-11.1c0-4.6,1.2-8.6,3.5-12,2.3-3.4,5.6-6.1,9.8-8,4.3-1.9,9.3-2.8,15-2.8s10.3,1,14.3,3c4.1,1.9,7.3,4.8,9.6,8.8,2.3,3.9,3.5,8.8,3.5,14.7v41.4h-10.8l-1.3-10.7c-1.7,3.8-4.7,6.8-8.9,9-4.1,2.2-8.9,3.2-14.2,3.2ZM696.7,94.3c6,0,10.8-1.8,14.2-5.4,3.4-3.7,5.1-8.6,5.1-14.8v-3.5l-16.9,1.3c-5.6.5-9.6,1.8-12.1,3.9-2.4,2.1-3.6,4.7-3.6,8s1.2,6.2,3.5,8c2.4,1.7,5.7,2.6,9.8,2.6Z"/>
    <path class="st0" d="M646.7,102.5V36.6h12.7v66h-12.7ZM652.9,20.9c-2.3,0-4.2-.8-5.9-2.4-1.6-1.7-2.4-3.7-2.4-5.9s.8-4.3,2.4-5.9c1.7-1.6,3.7-2.4,5.9-2.4s4.3.8,5.9,2.4c1.6,1.6,2.4,3.6,2.4,5.9s-.8,4.2-2.4,5.9c-1.6,1.6-3.6,2.4-5.9,2.4Z"/>
    <path class="st0" d="M585.9,102.5h-12.7V36.6h11.5l1.3,10.1c2.1-3.8,5-6.7,8.9-8.8,4-2.2,8.3-3.2,13-3.2,8.6,0,15,2.5,19.2,7.4,4.1,4.9,6.2,11.6,6.2,20.1v40.3h-12.7v-37.5c0-6.7-1.4-11.4-4.3-14.3-2.9-3-6.7-4.5-11.6-4.5s-10.6,1.9-13.9,5.8c-3.2,3.9-4.9,9-4.9,15.5v34.9Z"/>
    <path class="st0" d="M532.6,104.2c-6.4,0-12.1-1.4-17-4.3-4.9-3-8.8-7-11.6-12.1-2.8-5.2-4.2-11.2-4.2-18.1s1.3-13,4-18.2c2.8-5.2,6.6-9.3,11.3-12.3,4.9-3,10.5-4.5,16.9-4.5s11.7,1.3,16.3,4c4.7,2.7,8.3,6.5,10.8,11.3,2.6,4.9,3.9,10.6,3.9,17.1v4.7h-56.5c0,.1.3-8.4.3-8.4h43.6c0-5.5-1.7-9.9-5-13.2-3.3-3.3-7.8-5-13.4-5s-7.9.9-10.9,2.8c-3,1.8-5.3,4.5-6.9,8.1-1.5,3.5-2.3,7.7-2.3,12.7,0,7.9,1.8,14,5.4,18.3,3.6,4.2,8.8,6.3,15.5,6.3s9-1,12.1-3c3.1-2,5.3-4.9,6.3-8.6h11.9c-1.6,7-5.1,12.5-10.4,16.3-5.3,3.9-12.1,5.8-20.2,5.8Z"/>
    <path class="st0" d="M461,102.5l-26.6-66h13.5l14.4,36.8c1.2,3.1,2.2,6,3.1,8.8.9,2.7,1.6,5,2.2,7,.6-2.2,1.4-4.7,2.3-7.4,1-2.7,2.1-5.5,3.2-8.4l14.7-36.8h13.2l-27.5,66h-12.5Z"/>
    <path class="st0" d="M383,102.5h-12.7V36.6h11.5l1.3,10.1c2.1-3.8,5-6.7,8.9-8.8,4-2.2,8.3-3.2,13-3.2,8.6,0,15,2.5,19.2,7.4,4.1,4.9,6.2,11.6,6.2,20.1v40.3h-12.7v-37.5c0-6.7-1.4-11.4-4.3-14.3-2.9-3-6.7-4.5-11.6-4.5s-10.6,1.9-13.9,5.8c-3.2,3.9-4.9,9-4.9,15.5v34.9Z"/>
    <path class="st0" d="M353.8,5v97.5h-13.2V5h13.2Z"/>
  </g>
  <rect class="st0" width="259" height="259"/>
  <g>
    <path class="st1" d="M203.6,139.1v-16.9c-33.8,0-63,19.8-76.6,48.3h19.4c12-18.8,33.1-31.3,57.2-31.3h0Z"/>
    <path class="st1" d="M173.2,94.3c-19.7,5.9-31.1,13.7-39.9,21.4-3.9,3.2-7.3,6.3-10.5,9.4-9.6,9.2-18.7,17.8-40.5,24.3-10.3,3.1-18.5,4.2-25.6,4.2v16.9c8.5,0,18.3-1.3,30.4-4.9,19.7-5.9,31.1-13.7,39.9-21.4h0c3.9-3.1,7.3-6.3,10.5-9.4,9.6-9.2,18.7-17.8,40.5-24.3,10.3-3.1,18.5-4.2,25.6-4.2v-16.9c-8.5,0-18.3,1.3-30.4,4.9Z"/>
    <path class="st1" d="M56.7,120.7v16.9c33.8,0,63-19.8,76.6-48.3h-19.4c-12,18.8-33.1,31.3-57.2,31.3h0Z"/>
  </g>
</svg>