<?xml version="1.0" encoding="UTF-8"?>
<svg id="Layer_1" xmlns="http://www.w3.org/2000/svg" version="1.1" viewBox="0 0 646.2 54">
  <!-- Generator: Adobe Illustrator 30.1.0, SVG Export Plug-In . SVG Version: 2.1.1 Build 136)  -->
  <g>
    <polygon points="270.8 39.9 256.1 .4 244.3 .4 265.8 54 275.5 54 297.1 .4 285.5 .4 270.8 39.9"/>
    <polygon points="209.5 35.2 183 .4 172.9 .4 172.9 53.6 183.5 53.6 183.5 17.8 210.8 53.6 220.1 53.6 220.1 .4 209.5 .4 209.5 35.2"/>
    <rect x="132.2" y=".4" width="10.7" height="53.2"/>
    <polygon points="433.8 35.2 407.3 .4 397.2 .4 397.2 53.6 407.8 53.6 407.8 17.8 435.1 53.6 444.4 53.6 444.4 .4 433.8 .4 433.8 35.2"/>
    <polygon points="634.2 .4 619.6 24 604.9 .4 593 .4 593 53.6 603.5 53.6 603.5 16.8 619.4 41.1 635.5 16.6 635.5 53.6 646.2 53.6 646.2 .4 634.2 .4"/>
    <path d="M534.7,0l-22.8,53.6h10.9c1-2.4,1.9-4.7,2.9-7.1h28.1l2.9,7.1h11.2L544.9,0h-10.2ZM529.3,37.5c3.4-8.5,6.9-16.9,10.4-25.4l10.4,25.4h-20.7Z"/>
    <rect x="474.5" y=".4" width="10.7" height="53.2"/>
    <polygon points="366.4 10.7 366.4 0 323.1 0 323.1 .4 323.1 10.7 323.1 21.8 323.1 32.6 323.1 43.3 323.1 53.6 323.1 54 366.4 54 366.4 43.3 333.9 43.3 333.9 32.6 364.4 32.6 364.4 21.8 333.9 21.8 333.9 10.7 366.4 10.7"/>
  </g>
  <g>
    <path d="M95.7,33h0v-11.1h0c-22,0-41,13-49.9,31.6h12.7c7.8-12.3,21.6-20.5,37.2-20.5Z"/>
    <path d="M75.9,3.6c-12.9,3.8-20.2,9-26,14h0c-2.6,2.1-4.7,4.1-6.9,6.2-6.3,6-12.2,11.7-26.4,15.9C10,41.7,4.6,42.4,0,42.5v11.1c5.5,0,12-.9,19.8-3.2,12.9-3.8,20.2-9,26-14h0c2.6-2.1,4.7-4.1,6.9-6.2,6.3-6,12.2-11.7,26.4-15.9,6.7-2,12-2.7,16.7-2.8V.4c-5.5,0-12,.9-19.8,3.2Z"/>
    <path d="M0,20.9h0v11.1h0c22,0,41-13,49.9-31.6h-12.7C29.4,12.7,15.7,20.9,0,20.9Z"/>
  </g>
</svg>